<svg width="20" height="22" viewBox="0 0 20 22" fill="none" xmlns="http://www.w3.org/2000/svg">
    <path d="M7.5 16.5V4.58333L17.5 2.75V14.6667" stroke="#FFFFFF" stroke-width="1.66667" stroke-linecap="round" stroke-linejoin="round"/>
    <path d="M5 19.25C6.38071 19.25 7.5 18.0188 7.5 16.5C7.5 14.9812 6.38071 13.75 5 13.75C3.61929 13.75 2.5 14.9812 2.5 16.5C2.5 18.0188 3.61929 19.25 5 19.25Z" stroke="#FFFFFF" stroke-width="1.66667" stroke-linecap="round" stroke-linejoin="round"/>
    <path d="M15 17.416C16.3807 17.416 17.5 16.1848 17.5 14.666C17.5 13.1472 16.3807 11.916 15 11.916C13.6193 11.916 12.5 13.1472 12.5 14.666C12.5 16.1848 13.6193 17.416 15 17.416Z" stroke="#FFFFFF" stroke-width="1.66667" stroke-linecap="round" stroke-linejoin="round"/>
</svg>
