<?xml version="1.0" encoding="UTF-8"?><svg id="uuid-05e8c090-d506-48fc-a30c-bf405c5243cf" xmlns="http://www.w3.org/2000/svg" viewBox="0 0 76 787.13"><path d="M70,0l-.04,576.54c2.65,55.18.99,110.8,4,166.01.1,1.89.47,3.67,1.04,5.45-6.32-1.35-9.33,3.72-14.08,6.42-13,7.37-26.9,9.09-40.81,2.97-7.05-3.1-12.09-10.4-20.11-9.39v-14c3.01.56,1.91-1.53,1.99-3.45,2.02-51.29,2.09-102.71,4.01-154L5.96,0h64.04Z" style="fill:#ec2227;"/><path d="M70.04,0h5.96v748h-.99c-.57-1.78-.93-3.56-1.03-5.45-3-55.21-1.35-110.83-3.98-166.01l.04-576.54Z" style="fill:#b21e22;"/><path d="M6,0l.04,576.54c-1.94,51.29-1.89,102.68-3.92,153.97-.08,1.93.9,14.14-2.12,17.49V0h6Z" style="fill:#b21e22;"/><path d="M75,748h1v13c-8.37-.56-13.19,6.73-20.74,9.76-13.58,5.45-27.3,4.32-39.93-2.59-5.07-2.78-8.71-7.77-15.33-7.17v-13c8.03-1.01,13.06,6.28,20.11,9.39,13.9,6.12,27.81,4.41,40.81-2.97,4.75-2.7,7.76-7.77,14.08-6.42Z" style="fill:#f5aa1a;"/><path d="M76,761v13c-7.6-1.68-12.26,6.26-18,9-11.39,5.44-28.67,5.56-40,0-5.98-2.94-10.43-10.47-18-9v-13c6.62-.6,10.26,4.39,15.33,7.17,12.63,6.91,26.34,8.05,39.93,2.59,7.55-3.03,12.37-10.31,20.74-9.76Z" style="fill:#ec2227;"/><path d="M76,774v13c-5.96.21-13.04-.18-18-4,5.74-2.74,10.4-10.68,18-9Z" style="fill:#a31e22;"/><path d="M18,783c-5.5,2.94-11.76,4.47-18,4v-13c7.57-1.47,12.02,6.06,18,9Z" style="fill:#a31e22;"/></svg>