<svg width="16" height="16" viewBox="0 0 16 16" fill="none" xmlns="http://www.w3.org/2000/svg">
    <path d="M5.99967 8.66732C6.36786 8.66732 6.66634 8.36884 6.66634 8.00065C6.66634 7.63246 6.36786 7.33398 5.99967 7.33398C5.63148 7.33398 5.33301 7.63246 5.33301 8.00065C5.33301 8.36884 5.63148 8.66732 5.99967 8.66732Z" stroke="#717182" stroke-width="1.33333" stroke-linecap="round" stroke-linejoin="round"/>
    <path d="M5.99967 3.99935C6.36786 3.99935 6.66634 3.70087 6.66634 3.33268C6.66634 2.96449 6.36786 2.66602 5.99967 2.66602C5.63148 2.66602 5.33301 2.96449 5.33301 3.33268C5.33301 3.70087 5.63148 3.99935 5.99967 3.99935Z" stroke="#717182" stroke-width="1.33333" stroke-linecap="round" stroke-linejoin="round"/>
    <path d="M5.99967 13.3333C6.36786 13.3333 6.66634 13.0349 6.66634 12.6667C6.66634 12.2985 6.36786 12 5.99967 12C5.63148 12 5.33301 12.2985 5.33301 12.6667C5.33301 13.0349 5.63148 13.3333 5.99967 13.3333Z" stroke="#717182" stroke-width="1.33333" stroke-linecap="round" stroke-linejoin="round"/>
    <path d="M9.99967 8.66732C10.3679 8.66732 10.6663 8.36884 10.6663 8.00065C10.6663 7.63246 10.3679 7.33398 9.99967 7.33398C9.63148 7.33398 9.33301 7.63246 9.33301 8.00065C9.33301 8.36884 9.63148 8.66732 9.99967 8.66732Z" stroke="#717182" stroke-width="1.33333" stroke-linecap="round" stroke-linejoin="round"/>
    <path d="M9.99967 3.99935C10.3679 3.99935 10.6663 3.70087 10.6663 3.33268C10.6663 2.96449 10.3679 2.66602 9.99967 2.66602C9.63148 2.66602 9.33301 2.96449 9.33301 3.33268C9.33301 3.70087 9.63148 3.99935 9.99967 3.99935Z" stroke="#717182" stroke-width="1.33333" stroke-linecap="round" stroke-linejoin="round"/>
    <path d="M9.99967 13.3333C10.3679 13.3333 10.6663 13.0349 10.6663 12.6667C10.6663 12.2985 10.3679 12 9.99967 12C9.63148 12 9.33301 12.2985 9.33301 12.6667C9.33301 13.0349 9.63148 13.3333 9.99967 13.3333Z" stroke="#717182" stroke-width="1.33333" stroke-linecap="round" stroke-linejoin="round"/>
</svg>
