<svg width="20" height="22" viewBox="0 0 20 22" fill="none" xmlns="http://www.w3.org/2000/svg">
    <path d="M15.8333 2.75H4.16667C3.24619 2.75 2.5 3.57081 2.5 4.58333V17.4167C2.5 18.4292 3.24619 19.25 4.16667 19.25H15.8333C16.7538 19.25 17.5 18.4292 17.5 17.4167V4.58333C17.5 3.57081 16.7538 2.75 15.8333 2.75Z" stroke="white" stroke-width="1.66667" stroke-linecap="round" stroke-linejoin="round"/>
    <path d="M7.49967 10.0827C8.42015 10.0827 9.16634 9.26187 9.16634 8.24935C9.16634 7.23683 8.42015 6.41602 7.49967 6.41602C6.5792 6.41602 5.83301 7.23683 5.83301 8.24935C5.83301 9.26187 6.5792 10.0827 7.49967 10.0827Z" stroke="white" stroke-width="1.66667" stroke-linecap="round" stroke-linejoin="round"/>
    <path d="M17.5 13.7504L14.9283 10.9215C14.6158 10.5778 14.1919 10.3848 13.75 10.3848C13.3081 10.3848 12.8842 10.5778 12.5717 10.9215L5 19.2504" stroke="white" stroke-width="1.66667" stroke-linecap="round" stroke-linejoin="round"/>
</svg>
