<?xml version="1.0" encoding="UTF-8"?><svg id="uuid-9af86cce-6bf2-45b1-872e-c9227d662ce1" xmlns="http://www.w3.org/2000/svg" viewBox="0 0 140.25 930.08"><path d="M55.17,137.76l-2.72,3.61c-1.04,1.23-4.86,5.97-5.84,6.73l-7.16-2.27c.64-1.81,2.42-5.09,3.36-6.92,1.98-1.82,1.59-3.8,5.23-6.26l7.14,5.11Z" style="fill:#3e2537;"/><path d="M39.45,145.83l7.16,2.27c11.24,4.15,17.18,6.15,27.19,13,1.34,1.89,2.61,3.39,3.34,5.59-.08,2.41-.21,9.1-2.21,10.52-2.1,1.48-10.55,3.03-10.24,6.9.82,10.49-.16,13.85-11.83,16.37-.76,23.91-.42,49.24-.12,73.25.74,58.86-1.09,118.37.03,177.14l.06,15.9c-.35,24.75-.88,55.52-.06,80l.04,15.86-.1,244.67c0,33.72.55,67.55-.04,101.26-1.45,2.34-2.92,4.99-5.22,6.58-1.43,1-32.34,13.89-34.38,14.38-4.07.97-8.42.47-12.55.21L.39,180.5c-.62-14.86-.4-33.59,0-48.52,3.55,1,35.74,12.49,38.14,13.92l.92-.07Z" style="fill:#982322;"/><path d="M25.01,191.43c-3.43,28.88-4.33,57.33-5.31,86.33-1.55,45.19-1.17,90.45-1.17,135.66l2.12,380.61c-.05,12.94,1.39,104.98-.97,112.39-.14-.45-.51-1.65-.53-2.06-.65-27.17-1.67-54.71-2.65-81.87-5.09-122.28-7.89-244.65-8.38-367.04v-98.82c.05-23.25.8-156.94,9.01-169.1l7.88,3.89Z" style="fill:#5e1817;"/><path d="M39.45,145.83l7.16,2.27c11.24,4.15,17.18,6.15,27.19,13,1.34,1.89,2.61,3.39,3.34,5.59-.08,2.41-.21,9.1-2.21,10.52-2.1,1.48-10.55,3.03-10.24,6.9.82,10.49-.16,13.85-11.83,16.37-9.2-1.57-19.28-5.35-27.86-9.04l-7.88-3.89c-5.63-2.18-11.19-4.65-16.74-7.05-.62-14.86-.4-33.59,0-48.52,3.55,1,35.74,12.49,38.14,13.92l.92-.07Z" style="fill:#f7a43c;"/><path d="M39.45,145.83l7.16,2.27c11.24,4.15,17.18,6.15,27.19,13,1.34,1.89,2.61,3.39,3.34,5.59-.57-.31-5.79-3.77-5.47-3.81-7.11.91-21.35-.45-23.96-8.88.94-1.21,1.11-1.22,1.49-2.67-4.11-3.86-5.74-.3-10.66-5.43l.92-.07Z" style="fill:#c98e3d;"/><path d="M1.21.84l.59-.02c28.38,11.35,49.14,10.68,77.34-.04,11.08,4.91,16.66,4.48,23.63,7.19l1.43.28c.73,3.3-.51,6.69-1.34,10.1l-.62,1.5-1.48,6.56c-1.49,7.3-2.65,13.5-4.99,20.58l-6.09-1.53c-9.23,35.79-23.61,61.96-41.64,87.21-3.64,2.46-3.24,4.44-5.23,6.26-.93,1.83-2.72,5.11-3.35,6.92l-.92.07c-2.4-1.43-34.58-12.92-38.14-13.92l.04-1.71c-.92-22.84-.09-52.89.05-76.12V11.83s0-11.83,0-11.83l.72.84Z" style="fill:#982322;"/><path d="M48.03,132.65c-3.64,2.46-3.24,4.44-5.23,6.26-.93,1.83-2.72,5.11-3.35,6.92l-.92.07c-2.4-1.43-34.58-12.92-38.14-13.92l.04-1.71c.61-7.48.3-18.89.32-26.67,3.74,1.29,19.48,1.04,24.27,1.08,2.66-.35,2.1.09,4.01-1.34l2.15-1c2.78,13.04,6.96,21.09,16.85,30.31Z" style="fill:#8e2326;"/><path d="M79.13.78c11.08,4.91,16.66,4.48,23.63,7.19l1.43.28c.73,3.3-.51,6.69-1.34,10.1l-.62,1.5c-1.96.06-3.1-.53-4.94-1.21l-.47-.19c-1.32-1.62-3.85-1.9-5.79-2.7-17.53-7.22-32.37,5.52-51.34,4.58-15.09-.74-24.03-4.48-38.52-8.03l.04-11.46.59-.02c28.38,11.35,49.14,10.68,77.34-.04Z" style="fill:#5e1817;"/><path d="M104.2,8.24c.73,3.3-.51,6.69-1.34,10.1l-.62,1.5c-1.96.06-3.1-.53-4.94-1.21.7-4.77.18-10.07,5.47-10.66l1.43.28Z" style="fill:#49221b;"/><path d="M1.21.84l-.04,11.46c14.49,3.55,23.43,7.29,38.52,8.03,18.97.94,33.81-11.81,51.34-4.58,1.94.8,4.47,1.08,5.79,2.7l-1.12,6.39c-.49-.67-1.54-1.77-2.13-2.43-16.3-6.35-24.76-.05-40.32,2.12-13.67,1.9-27.99.6-40.99-3.4C3.41,18.4,1.72,23.14.49,11.83V0s.72.84.72.84Z" style="fill:#7b241f;"/><path d="M102.23,19.83l-1.48,6.56c-1.49,7.3-18.68,58.8-45.58,111.37l-7.14-5.11c32.42-44.83,46.55-103.82,47.67-107.82l1.12-6.39.47.19c1.84.68,2.98,1.27,4.94,1.21Z" style="fill:#5e1817;"/><path d="M138.75,25.02c-2.44,9.45-5.09,18.84-7.95,28.17-18.42,70.93-31.41,75.02-43.49,91.06-21.05,6.99-26.51.23-32.14-6.49,24.26-51.64,44.09-104.08,45.58-111.37l1.48-6.56.62-1.5c5.05.64,8.99,1.87,14.18,2.14,5.62.28,19.57-4.44,23.22-2.17l-1.51,6.72Z" style="fill:#982322;"/><path d="M138.75,25.02c-4.47-1.67-33.99-.22-37.99,1.37l1.48-6.56.62-1.5c5.05.64,8.99,1.87,14.18,2.14,5.62.28,19.57-4.44,23.22-2.17l-1.51,6.72Z" style="fill:#7b241f;"/><path d="M87.31,144.25c-1.11,3.5-4.02,6.98-6.86,9.23-1.79,1.97-5.3,5.62-6.65,7.63-10.01-6.85-15.95-8.85-27.19-13,.98-.76,4.81-5.5,5.84-6.73l2.72-3.61c12.12,5.92,18.61,7.39,32.14,6.49Z" style="fill:#492d44;"/><path d="M80.45,153.47c-1.79,1.97-5.3,5.62-6.65,7.63-10.01-6.85-15.95-8.85-27.19-13,.98-.76,4.81-5.5,5.84-6.73,9.8,10.81,24.13,8.55,27.99,12.1Z" style="fill:#5e2a3d;"/></svg>