<?xml version="1.0" encoding="UTF-8"?><svg id="uuid-266edcf5-7aa0-4321-8a40-f83cd952910d" xmlns="http://www.w3.org/2000/svg" viewBox="0 0 672 576"><rect x="18.85" y="19.67" width="633.27" height="533.58" style="fill:#f8a844;"/><path d="M641.04.62c.02-.08.03-.17.05-.25-.01.07-.03.15-.05.25Z" style="fill:#f8a844;"/><path d="M640.89,1.35c.06-.31.11-.54.15-.73-.07.36-.15.73-.15.73Z" style="fill:#f8a844;"/><path d="M641.08.37c.12-.6.08-.39,0,0h0Z" style="fill:#f8a844;"/><path d="M664.21,83.69c2.74-6.91-1.18-8.74-1.18-8.74.93,5.06-14.02,3.26-2.1-8.5,11.92-11.77,4.5-31.3,4.5-31.3,7-2.9,5.2-3.81,5.2-3.81-3.06.58-4.07-3.9-3.74-7.12.34-3.22-.59-5.86-1.29-7.93-.5-1.49-3.02-4.04-4.4-5.35-1.3-1.39-3.83-3.93-5.32-4.44-2.06-.71-4.7-1.66-7.92-1.35s-7.7-.73-7.09-3.79c0,0-.9-1.81-3.85,5.17,0,0-19.47-7.56-31.32,4.28-11.85,11.84-13.53-3.13-8.49-2.16,0,0-1.8-3.93-8.73-1.24-6.93,2.69-4.72,11.45-4.72,11.45l34.69,34.5,34.24,34.95s8.74,2.27,11.48-4.64Z" style="fill:#f8a844;"/><path d="M670.65,31.34s.38-.07.73-.14c-.19.04-.43.08-.73.14Z" style="fill:#f8a844;"/><path d="M671.63,31.15c.39-.07.6-.11,0,0h0Z" style="fill:#f8a844;"/><path d="M671.38,31.2c.09-.02.18-.03.25-.05-.08.01-.16.03-.25.05Z" style="fill:#f8a844;"/><path d="M656.14,22.27c-.7-1.43-1.67-2.81-2.79-3.9l2.35-2.29c-.69-.35-6.12-3.62-6.12-3.62l-1.17,2.82c-1.55-.58-3.33-.92-4.88-.94l-.12-3.42c-.74.19-6.83,1.19-6.83,1.19l1.34,3.27c-1.67.68-3.2,1.66-4.48,2.88l-2.09-1.98c-.39.66-3.95,5.58-3.95,5.58l2.71,1.11c-.67,1.61-1.06,3.46-1.09,5.23h-2.44c.22.88,1.28,6.61,1.28,6.61l2.21-.97c.72,1.74,1.77,3.31,3.08,4.63l-1.5,1.72c.69.34,5.31,3.49,5.31,3.5l1.15-1.98c1.59.61,3.32.95,5.13.95.1,0,.2,0,.29,0l.13,2.27c.75-.18,6.14-1.26,6.14-1.26l-.8-2.21c1.7-.75,3.22-1.82,4.49-3.13l1.95,1.93c.41-.65,3.99-5.87,3.99-5.88l-2.72-1.16.02-.03c.52-1.46.85-3.04.85-4.68v-.05l2.56-.17c-.17-.75-1.22-6.82-1.22-6.82l-2.85.84M643.45,39.05c-5.86,0-10.61-4.7-10.61-10.5s4.75-10.5,10.61-10.5,10.61,4.7,10.61,10.5-4.75,10.5-10.61,10.5Z" style="fill:#ffe7cc;"/><path d="M671.38,545.02c.08.02.17.03.25.05-.07-.01-.15-.03-.25-.05Z" style="fill:#f8a844;"/><path d="M670.65,544.88c.31.06.54.11.73.15-.36-.07-.73-.15-.73-.15Z" style="fill:#f8a844;"/><path d="M671.63,545.07c.6.12.39.08,0,0h0Z" style="fill:#f8a844;"/><path d="M588.35,568.21c6.91,2.74,8.73-1.18,8.73-1.18-5.06.94-3.26-14.02,8.5-2.1,11.76,11.93,31.28,4.51,31.28,4.51,2.9,7.01,3.81,5.2,3.81,5.2-.58-3.07,3.9-4.08,7.12-3.74,3.22.34,5.86-.59,7.93-1.29,1.49-.5,4.04-3.03,5.35-4.4,1.39-1.3,3.93-3.83,4.44-5.32.71-2.06,1.66-4.7,1.35-7.92s.73-7.7,3.79-7.09c0,0,1.81-.9-5.17-3.85,0,0,7.56-19.48-4.28-31.33-11.84-11.85,3.13-13.54,2.16-8.49,0,0,3.93-1.8,1.24-8.73-2.69-6.93-11.45-4.72-11.45-4.72l-34.49,34.71-34.94,34.25s-2.27,8.75,4.63,11.49Z" style="fill:#f8a844;"/><path d="M640.68,574.65s.07.38.14.73c-.04-.19-.08-.43-.14-.73Z" style="fill:#f8a844;"/><path d="M640.86,575.63c.07.39.11.6,0,0h0Z" style="fill:#f8a844;"/><path d="M640.82,575.38c.02.09.03.18.05.25-.01-.08-.03-.16-.05-.25Z" style="fill:#f8a844;"/><path d="M649.74,560.13c1.42-.7,2.81-1.67,3.9-2.79l2.29,2.35c.34-.69,3.62-6.13,3.62-6.13l-2.82-1.17c.58-1.55.92-3.33.94-4.88l3.42-.12c-.19-.74-1.19-6.83-1.19-6.83l-3.27,1.35c-.68-1.67-1.66-3.2-2.88-4.48l1.98-2.09c-.66-.39-5.58-3.96-5.58-3.96l-1.11,2.71c-1.61-.67-3.46-1.06-5.22-1.09v-2.44c-.88.22-6.61,1.28-6.61,1.28l.97,2.21c-1.74.72-3.31,1.77-4.62,3.08l-1.72-1.5c-.34.69-3.49,5.32-3.49,5.32l1.98,1.15c-.61,1.59-.95,3.32-.95,5.14,0,.1,0,.2,0,.29l-2.26.13c.18.75,1.26,6.15,1.26,6.15l2.21-.8c.75,1.7,1.82,3.22,3.13,4.49l-1.93,1.95c.65.41,5.87,4,5.88,4l1.16-2.72.03.02c1.46.52,3.04.85,4.68.85h.05l.17,2.56c.75-.17,6.81-1.22,6.81-1.22l-.84-2.85M632.97,547.44c0-5.86,4.7-10.61,10.5-10.61s10.5,4.75,10.5,10.61-4.7,10.61-10.5,10.61-10.5-4.75-10.5-10.61Z" style="fill:#ffe7cc;"/><path d="M.62,30.98c-.08-.02-.17-.03-.25-.05.07.01.15.03.25.05Z" style="fill:#f8a844;"/><path d="M1.35,31.12c-.31-.06-.54-.11-.73-.15.36.07.73.15.73.15Z" style="fill:#f8a844;"/><path d="M.37,30.93c-.6-.12-.39-.08,0,0H.37Z" style="fill:#f8a844;"/><path d="M83.65,7.79c-6.91-2.74-8.73,1.18-8.73,1.18,5.06-.94,3.26,14.02-8.5,2.1-11.76-11.93-31.28-4.51-31.28-4.51-2.9-7.01-3.81-5.2-3.81-5.2.58,3.07-3.9,4.08-7.12,3.74-3.22-.34-5.86.59-7.93,1.29-1.49.5-4.04,3.03-5.35,4.4-1.39,1.3-3.93,3.83-4.44,5.32-.71,2.06-1.66,4.7-1.35,7.92s-.73,7.7-3.79,7.09c0,0-1.81.9,5.17,3.85,0,0-7.56,19.48,4.28,31.33,11.84,11.85-3.13,13.54-2.16,8.49,0,0-3.93,1.8-1.24,8.73,2.69,6.93,11.45,4.72,11.45,4.72l34.49-34.71,34.94-34.25s2.27-8.75-4.63-11.49Z" style="fill:#f8a844;"/><path d="M31.32,1.35s-.07-.38-.14-.73c.04.19.08.43.14.73Z" style="fill:#f8a844;"/><path d="M31.14.37c-.07-.39-.11-.6,0,0h0Z" style="fill:#f8a844;"/><path d="M31.18.62c-.02-.09-.03-.18-.05-.25.01.08.03.16.05.25Z" style="fill:#f8a844;"/><path d="M22.26,15.87c-1.42.7-2.81,1.67-3.9,2.79l-2.29-2.35c-.34.69-3.62,6.13-3.62,6.13l2.82,1.17c-.58,1.55-.92,3.33-.94,4.88l-3.42.12c.19.74,1.19,6.83,1.19,6.83l3.27-1.35c.68,1.67,1.66,3.2,2.88,4.48l-1.98,2.09c.66.39,5.58,3.96,5.58,3.96l1.11-2.71c1.61.67,3.46,1.06,5.22,1.09v2.44c.88-.22,6.61-1.28,6.61-1.28l-.97-2.21c1.74-.72,3.31-1.77,4.62-3.08l1.72,1.5c.34-.69,3.49-5.32,3.49-5.32l-1.98-1.15c.61-1.59.95-3.32.95-5.14,0-.1,0-.2,0-.29l2.26-.13c-.18-.75-1.26-6.15-1.26-6.15l-2.21.8c-.75-1.7-1.82-3.22-3.13-4.49l1.93-1.95c-.65-.41-5.87-4-5.88-4l-1.16,2.72-.03-.02c-1.46-.52-3.04-.85-4.68-.85h-.05l-.17-2.56c-.75.17-6.81,1.22-6.81,1.22l.84,2.85M39.03,28.56c0,5.86-4.7,10.61-10.5,10.61s-10.5-4.75-10.5-10.61,4.7-10.61,10.5-10.61,10.5,4.75,10.5,10.61Z" style="fill:#ffe7cc;"/><path d="M30.96,575.38c-.02.08-.03.17-.05.25.01-.07.03-.15.05-.25Z" style="fill:#f8a844;"/><path d="M31.11,574.65c-.06.31-.11.54-.15.73.07-.36.15-.73.15-.73Z" style="fill:#f8a844;"/><path d="M30.92,575.63c-.12.6-.08.39,0,0h0Z" style="fill:#f8a844;"/><path d="M7.79,492.31c-2.74,6.91,1.18,8.74,1.18,8.74-.93-5.06,14.02-3.26,2.1,8.5-11.92,11.77-4.5,31.3-4.5,31.3-7,2.9-5.2,3.81-5.2,3.81,3.06-.58,4.07,3.9,3.74,7.12-.34,3.22.59,5.86,1.29,7.93.5,1.49,3.02,4.04,4.4,5.35,1.3,1.39,3.83,3.93,5.32,4.44,2.06.71,4.7,1.66,7.92,1.35,3.22-.31,7.7.73,7.09,3.79,0,0,.9,1.81,3.85-5.17,0,0,19.47,7.56,31.32-4.28,11.85-11.84,13.53,3.13,8.49,2.16,0,0,1.8,3.93,8.73,1.24,6.93-2.69,4.72-11.45,4.72-11.45l-34.69-34.5-34.24-34.95s-8.74-2.27-11.48,4.64Z" style="fill:#f8a844;"/><path d="M1.35,544.66s-.38.07-.73.14c.19-.04.43-.08.73-.14Z" style="fill:#f8a844;"/><path d="M.37,544.85c-.39.07-.6.11,0,0H.37Z" style="fill:#f8a844;"/><path d="M.62,544.8c-.09.02-.18.03-.25.05.08-.01.16-.03.25-.05Z" style="fill:#f8a844;"/><path d="M15.86,553.73c.7,1.43,1.67,2.81,2.79,3.9l-2.35,2.29c.69.35,6.12,3.62,6.12,3.62l1.17-2.82c1.55.58,3.33.92,4.88.94l.12,3.42c.74-.19,6.83-1.19,6.83-1.19l-1.34-3.27c1.67-.68,3.2-1.66,4.48-2.88l2.09,1.98c.39-.66,3.95-5.58,3.95-5.58l-2.71-1.11c.67-1.61,1.06-3.46,1.09-5.23h2.44c-.22-.88-1.28-6.61-1.28-6.61l-2.21.97c-.72-1.74-1.77-3.31-3.08-4.63l1.5-1.72c-.69-.34-5.31-3.49-5.31-3.5l-1.15,1.98c-1.59-.61-3.32-.95-5.13-.95-.1,0-.2,0-.29,0l-.13-2.27c-.75.18-6.14,1.26-6.14,1.26l.8,2.21c-1.7.75-3.22,1.82-4.49,3.13l-1.95-1.93c-.41.65-3.99,5.87-3.99,5.88l2.72,1.16-.02.03c-.52,1.46-.85,3.04-.85,4.68v.05l-2.56.17c.17.75,1.22,6.82,1.22,6.82l2.85-.84M28.55,536.95c5.86,0,10.61,4.7,10.61,10.5s-4.75,10.5-10.61,10.5-10.61-4.7-10.61-10.5,4.75-10.5,10.61-10.5Z" style="fill:#ffe7cc;"/></svg>