<svg xmlns="http://www.w3.org/2000/svg" width="24" height="24" viewBox="0 0 24 24"><path fill="white" d="M15.333 9.5A3.5 3.5 0 0 0 8.8 7.75a1 1 0 0 0 1.733 1a1.5 1.5 0 0 1 1.3-.75a1.5 1.5 0 1 1 0 3h-.003a1 1 0 0 0-.19.039a1 1 0 0 0-.198.04a1 1 0 0 0-.155.105a1 1 0 0 0-.162.11a1 1 0 0 0-.117.174a1 1 0 0 0-.097.144a1 1 0 0 0-.043.212a1 1 0 0 0-.035.176v1l.002.011v.491a1 1 0 0 0 1 .998h.003a1 1 0 0 0 .998-1.002l-.002-.662A3.49 3.49 0 0 0 15.333 9.5m-4.203 6.79a1 1 0 0 0 .7 1.71a1.04 1.04 0 0 0 .71-.29a1.015 1.015 0 0 0 0-1.42a1.034 1.034 0 0 0-1.41 0"/></svg>
