<?xml version="1.0" encoding="UTF-8"?>
<svg id="Layer_1" xmlns="http://www.w3.org/2000/svg" version="1.1" viewBox="0 0 141 931">
  <!-- Generator: Adobe Illustrator 29.8.5, SVG Export Plug-In . SVG Version: 2.1.1 Build 2)  -->
  <defs>
    <style>
      .st0 {
        fill: #f7a43c;
      }

      .st1 {
        fill: #5e1817;
      }

      .st2 {
        fill: #982322;
      }

      .st3 {
        fill: #3e2537;
      }

      .st4 {
        fill: #7b241f;
      }

      .st5 {
        fill: #49221b;
      }

      .st6 {
        fill: #5e2a3d;
      }

      .st7 {
        fill: #8e2326;
      }

      .st8 {
        fill: #c98e3d;
      }

      .st9 {
        fill: #492d44;
      }
    </style>
  </defs>
  <path class="st3" d="M92.22,132.65c3.64,2.46,3.24,4.44,5.23,6.26.93,1.83,2.72,5.11,3.36,6.92l-7.16,2.27c-.98-.76-4.81-5.5-5.84-6.73l-2.72-3.61,7.14-5.11Z"/>
  <path class="st2" d="M101.72,145.9c2.4-1.43,34.58-12.92,38.14-13.92.41,14.93.63,33.66,0,48.52l-.14,749.22c-4.14.26-8.49.76-12.55-.21-2.04-.49-32.95-13.38-34.38-14.38-2.3-1.59-3.77-4.24-5.22-6.58-.59-33.71-.04-67.53-.04-101.26l-.1-244.67.04-15.86c.82-24.47.29-55.25-.06-80l.06-15.9c1.12-58.78-.71-118.29.03-177.14.3-24.02.64-49.34-.12-73.25-11.67-2.52-12.65-5.88-11.83-16.37.31-3.88-8.14-5.42-10.24-6.9-2-1.41-2.13-8.1-2.21-10.52.73-2.2,2-3.69,3.34-5.59,10.01-6.85,15.95-8.85,27.19-13l7.16-2.27.92.07Z"/>
  <path class="st1" d="M123.12,187.55c8.22,12.16,8.96,145.85,9.01,169.1v98.82c-.49,122.39-3.29,244.76-8.38,367.04-.97,27.17-2,54.71-2.65,81.87-.02.41-.39,1.61-.53,2.06-2.36-7.42-.92-99.45-.97-112.39l2.12-380.61c0-45.21.37-90.47-1.17-135.66-.99-29-1.88-57.45-5.31-86.33l7.88-3.89Z"/>
  <path class="st0" d="M101.72,145.9c2.4-1.43,34.58-12.92,38.14-13.92.41,14.93.63,33.66,0,48.52-5.55,2.4-11.11,4.86-16.74,7.05l-7.88,3.89c-8.58,3.69-18.65,7.47-27.86,9.04-11.67-2.52-12.65-5.88-11.83-16.37.31-3.88-8.14-5.42-10.24-6.9-2-1.41-2.13-8.1-2.21-10.52.73-2.2,2-3.69,3.34-5.59,10.01-6.85,15.95-8.85,27.19-13l7.16-2.27.92.07Z"/>
  <path class="st8" d="M101.72,145.9c-4.92,5.13-6.55,1.57-10.66,5.43.38,1.45.55,1.47,1.49,2.67-2.61,8.43-16.85,9.79-23.96,8.88.32.04-4.9,3.5-5.47,3.81.73-2.2,2-3.69,3.34-5.59,10.01-6.85,15.95-8.85,27.19-13l7.16-2.27.92.07Z"/>
  <path class="st2" d="M139.76,0v54.15c.14,23.23.98,53.28.06,76.12l.04,1.71c-3.55,1-35.74,12.49-38.14,13.92l-.92-.07c-.64-1.81-2.42-5.09-3.35-6.92-1.98-1.82-1.59-3.8-5.23-6.26-18.04-25.26-32.42-51.42-41.64-87.21l-6.09,1.53c-2.34-7.08-3.5-13.29-4.99-20.58l-1.48-6.56-.62-1.5c-.83-3.41-2.06-6.8-1.34-10.1l1.43-.28c6.96-2.71,12.55-2.28,23.63-7.19,28.2,10.72,48.96,11.38,77.34.04l.59.02.72-.84Z"/>
  <path class="st7" d="M109.08,102.34l2.15,1c1.91,1.43,1.35.99,4.01,1.34,4.79-.04,20.53.21,24.27-1.08.02,7.78-.29,19.19.32,26.67l.04,1.71c-3.55,1-35.74,12.49-38.14,13.92l-.92-.07c-.64-1.81-2.42-5.09-3.35-6.92-1.98-1.82-1.59-3.8-5.23-6.26,9.9-9.22,14.07-17.27,16.85-30.31Z"/>
  <path class="st1" d="M138.46.81l.59.02.04,11.46c-14.49,3.55-23.43,7.29-38.52,8.03-18.97.94-33.81-11.81-51.34-4.58-1.94.8-4.47,1.08-5.79,2.7l-.47.19c-1.84.68-2.98,1.27-4.94,1.21l-.62-1.5c-.83-3.41-2.06-6.8-1.34-10.1l1.43-.28c6.96-2.71,12.55-2.28,23.63-7.19,28.2,10.72,48.96,11.38,77.34.04Z"/>
  <path class="st5" d="M37.49,7.96c5.29.59,4.77,5.89,5.47,10.66-1.84.68-2.98,1.27-4.94,1.21l-.62-1.5c-.83-3.41-2.06-6.8-1.34-10.1l1.43-.28Z"/>
  <path class="st4" d="M139.76,0v11.83c-1.23,11.31-2.93,6.57-11.77,9.29-13.01,4-27.33,5.3-40.99,3.4-15.56-2.17-24.03-8.47-40.32-2.12-.59.66-1.64,1.76-2.13,2.43l-1.12-6.39c1.32-1.62,3.85-1.9,5.79-2.7,17.53-7.22,32.37,5.52,51.34,4.58,15.09-.74,24.03-4.48,38.52-8.03l-.04-11.46.72-.84Z"/>
  <path class="st1" d="M42.96,18.62l.47-.19,1.12,6.39c1.12,4,15.25,62.99,47.67,107.82l-7.14,5.11C58.18,85.18,40.99,33.69,39.5,26.39l-1.48-6.56c1.96.06,3.1-.53,4.94-1.21Z"/>
  <path class="st2" d="M0,18.3c3.65-2.27,17.6,2.45,23.22,2.17,5.19-.26,9.12-1.5,14.18-2.14l.62,1.5,1.48,6.56c1.49,7.3,21.32,59.74,45.58,111.37-5.63,6.72-11.09,13.48-32.14,6.49-12.07-16.03-25.07-20.13-43.49-91.06-2.86-9.33-5.51-18.72-7.95-28.17l-1.51-6.72Z"/>
  <path class="st4" d="M0,18.3c3.65-2.27,17.6,2.45,23.22,2.17,5.19-.26,9.12-1.5,14.18-2.14l.62,1.5,1.48,6.56c-4.01-1.58-33.52-3.03-37.99-1.37l-1.51-6.72Z"/>
  <path class="st9" d="M85.08,137.76l2.72,3.61c1.04,1.23,4.86,5.97,5.84,6.73-11.24,4.15-17.18,6.15-27.19,13-1.35-2.01-4.85-5.66-6.65-7.63-2.84-2.25-5.75-5.73-6.86-9.23,13.52.91,20.02-.57,32.14-6.49Z"/>
  <path class="st6" d="M87.8,141.37c1.04,1.23,4.86,5.97,5.84,6.73-11.24,4.15-17.18,6.15-27.19,13-1.35-2.01-4.85-5.66-6.65-7.63,3.86-3.55,18.19-1.29,27.99-12.1Z"/>
</svg>