<?xml version="1.0" encoding="UTF-8"?><svg id="uuid-b7e064ec-6420-4db8-9cd3-77f609dcefd2" xmlns="http://www.w3.org/2000/svg" viewBox="0 0 1602.39 95.96"><path d="M803.16,1.06c42.75-.83,85.79.32,128.57-.16,6.01-.07,12.41-.15,18.38.14l7.77.07,143.06-.04,9.19.04,142.94-.03,9.3.03,142.19-.04,9.1.05,188.59-1.12c.42,5.21-.17,39.33-.17,61.33l.08,25.7s-32.97,16.02-79.99.4c-10.38,6.09-59.7,11.18-75.34-.24-22.94,11.71-53.14,10.64-76.22-.06-24.62,11.74-51.04,10.54-75.74.13-24.74,11.5-51.63,10.8-76.34-.12-23.69,11.7-51.79,10.52-75.63.06-25.47,11.99-50.86,10.49-76.34.04-24.89,11.3-50.95,10.81-75.78-.09-21.29,11.31-54.58,10.96-75.94-.05-2.1.92-4.21,1.8-6.34,2.64-22.87,9.01-47.51,7.03-69.77-2.58-21.72,11.48-54.16,10.82-75.98-.08-24.91,11.86-51.04,10.62-76.02.13-23.33,11.74-52.62,10.54-76.05-.1-24.2,11.63-51.48,10.71-75.77.1-25.6,11.95-50.74,10.54-76.34.02-24.62,11.23-51.1,10.86-75.68-.05-22.7,11.99-53.33,10.34-76.23-.02-24.71,11.57-51.13,10.69-75.86.02l-.53.74c-5.02,1.13-11.4,4.06-17.67,5.33-21.08,4.27-37.42,2.38-56.83-6.46-16.67,11.26-63.32,10.79-77.69.2-43.44,20.16-77.9.05-77.9.05L.59.56l36.5.52,9.24.03,142.79-.02,8.5.03,143.11-.04,9.13.04,143.07-.04,8.35.04,143.79-.03,9.28.03c28.23,0,58.59.52,86.69-.14,17.82-.02,38.45-.56,56.03.05l6.1.04Z" style="fill:#e72829;"/><path d="M741.16.5c17.82-.02,38.45-.56,56.03.05l6.1.04.19.37c-.02,4.33.14,9.78-.66,13.94l-3.98.02-.18.38c-11.04.76-16.67,6.96-25.89,12.92-17.27,11.4-38.03,16.3-58.58,13.82-11.47-1.42-22.37-5.19-32.5-10.76-11.01-6.06-17.07-14.61-29.88-15.88l-.91-.09-.04-.44-4.16.03c-.29-3.74.35-11.93-1.51-14.29l9.28.03c28.23,0,58.59.52,86.69-.14Z" style="fill:#e72829;"/><path d="M797.19.55l6.1.04.19.37c-.02,4.33.14,9.78-.66,13.94l-3.98.02c-.93-4.8.07-9.68-1.58-14.09l-.07-.28Z" style="fill:#982322;"/><path d="M645.19.61l9.28.03c-5.51,1.38-2.36,8.86-3.61,14.23l-4.16.03c-.29-3.74.35-11.93-1.51-14.29Z" style="fill:#982322;"/><path d="M349.99.64l143.07-.04c1.98,2.42,1.23,10.35,1.57,14.28l-.12.41c-10.49.87-16.71,6.77-25.15,12.51-31.74,21.59-74.05,19.23-103.82-4.71-5.31-4.27-10.77-6.93-17.52-7.69l-.95-.1-.18-.38-4-.02c-1.34-4.57.5-11.47-2.03-14.3l9.13.04Z" style="fill:#e72829;"/><path d="M340.86.6l9.13.04-2,.75c-1.39,3.61-.43,8.91-1.1,13.53l-4-.02c-1.34-4.57.5-11.47-2.03-14.3Z" style="fill:#982322;"/><path d="M958,.64l143.06-.04c1.98,2.41,1.26,10.38,1.57,14.27l-.12.41c-12.9,1.09-19.78,9.8-31.09,16.24-7.77,4.34-16.16,7.48-24.87,9.31-21.89,4.61-44.77.43-63.87-11.43-9.55-5.93-15.41-12.76-26.65-14.02l-.96-.1-.18-.38-4.02-.04c-.84-3.37-.73-10.2-.8-13.94l.17-.37,7.77.07Z" style="fill:#e72829;"/><path d="M950.23.57l7.77.07-2.01.74c-1.37,3.57-.48,8.98-1.1,13.54l-4.02-.04c-.84-3.37-.73-10.2-.8-13.94l.17-.37Z" style="fill:#982322;"/><path d="M1413.78.65l143.11-.04c2.51,2.83.66,9.76,1.99,14.28l-.11.42c-11.6.81-16.74,6.88-26.32,13.11-17.22,11.29-37.88,16.12-58.32,13.62-11.78-1.44-23.14-5.57-33.46-11.39-10.6-5.97-16.46-13.95-28.78-15.26l-.94-.1-.12-.4-3.99.02c-.76-3.77.22-12.29-2.16-14.32l9.1.05Z" style="fill:#e72829;"/><path d="M1404.68.6l9.1.05-1.81.77c-1.24,4.7-.22,8.53-1.14,13.48l-3.99.02c-.76-3.77.22-12.29-2.16-14.32Z" style="fill:#982322;"/><path d="M197.75.65l143.11-.04c2.53,2.83.69,9.73,2.03,14.3l-.13.41c-11.63.84-16.73,6.87-26.34,13.13-17.22,11.29-37.89,16.11-58.33,13.61-11.63-1.43-22.97-5.52-33.18-11.23-10.52-5.88-16.9-14.26-29.11-15.43l-.87-.08-.12-.4-3.99.02c-.71-3.96-.06-12-1.58-14.3l8.5.03Z" style="fill:#e72829;"/><path d="M189.24.62l8.5.03-1.79.78c-1.26,4.78-.17,8.53-1.15,13.47l-3.99.02c-.71-3.96-.06-12-1.58-14.3Z" style="fill:#982322;"/><path d="M1110.25.64l142.94-.03c1.74,2.21,1.24,10.76,1.51,14.29l-.17.39c-13.07,1.17-19.57,9.63-30.97,16.17-8.06,4.53-16.8,7.75-25.87,9.54-21.54,4.3-44.05.17-62.84-11.48-9.6-5.95-15.54-12.87-26.78-14.13l-.89-.1-.13-.41h-4.42c-.31-3.91.41-11.87-1.56-14.28l9.18.04Z" style="fill:#e72829;"/><path d="M1101.07.61l9.18.04-2.2.64c-1.29,2.63-.93,10.25-1,13.6h-4.42c-.31-3.91.41-11.87-1.56-14.28Z" style="fill:#982322;"/><path d="M501.41.64l143.79-.03c1.85,2.36,1.22,10.55,1.51,14.29l-.17.4c-10.71.71-17.2,7.39-26.17,13.18-17.14,11.18-37.66,16-57.98,13.6-11.69-1.42-23.14-5.37-33.39-11.2-10.53-5.99-16.66-14.18-29-15.5l-.81-.08-.14-.4h-4.4c-.34-3.94.41-11.87-1.57-14.29l8.35.04Z" style="fill:#e72829;"/><path d="M493.06.6l8.35.04-1.72.9c-.96,4.01-.42,9.14-.65,13.35h-4.4c-.34-3.94.41-11.87-1.57-14.29Z" style="fill:#982322;"/><path d="M1262.49.64l142.19-.04c2.38,2.03,1.4,10.55,2.16,14.32l-.18.39c-11.5.93-16.58,6.78-26.08,13.02-17.45,11.54-38.5,16.38-59.24,13.62-11.21-1.52-21.73-5.33-31.67-10.69-10.91-5.88-17.33-14.62-29.87-15.85l-.91-.09-.05-.44-4.14.03c-.27-3.53.23-12.08-1.51-14.29l9.3.03Z" style="fill:#e72829;"/><path d="M1253.19.61l9.3.03c-5.56,1.37-2.34,8.78-3.65,14.23l-4.14.03c-.27-3.53.23-12.08-1.51-14.29Z" style="fill:#982322;"/><path d="M46.45.64l142.79-.02c1.52,2.3.87,10.34,1.58,14.3l-.19.39c-11.58.95-16.52,6.8-26.1,13.04-17.51,11.57-38.63,16.38-59.42,13.54-11.38-1.57-22.4-5.56-32.41-11.2-10.45-5.89-16.46-13.89-28.62-15.3l-.94-.1-.12-.42-4.34.03c-.28-3.71.36-11.95-1.47-14.29l9.24.03Z" style="fill:#e72829;"/><path d="M37.22.61l9.24.03c-1.55.39-2.29.2-2.62,1.22-1.13,3.5-.37,9.28-.8,13.01l-4.34.03c-.28-3.71.36-11.95-1.47-14.29Z" style="fill:#982322;"/><path d="M803.29.59c42.75-.83,85.79.32,128.57-.16,6.01-.07,12.41-.15,18.38.14l-.17.37c.07,3.74-.04,10.57.8,13.94l-.1.42c-11.55.84-16.59,6.75-26.11,12.96-17.43,11.53-38.43,16.39-59.16,13.68-11.57-1.63-22.73-5.47-32.86-11.3-10.38-6.09-16.89-14.01-28.76-15.26l-.94-.1-.13-.41c.8-4.16.64-9.61.66-13.94l-.19-.37Z" style="fill:#e72829;"/><path d="M1410.83,14.9l.12.4c-.2,6.11-.35,18.12-1.32,23.78l.93,2.04-.49-.08-2.45,1.1-.69-.5c-11.28.77-18.98,8.43-28.11,14.33-26.18,17.15-64.5,17.39-91.01.74-11.17-7.02-15.58-12.89-29.29-15.23l.06-.76-1.02-1.97c1.02-6.02,1.1-16.95,1.33-23.44l.91.09c12.54,1.23,18.96,9.97,29.87,15.85,9.94,5.36,20.46,9.17,31.67,10.69,20.74,2.76,41.79-2.07,59.24-13.62,9.5-6.23,14.58-12.09,26.08-13.02l.18-.39,3.99-.02Z" style="fill:#f7a43c;"/><path d="M1410.83,14.9l.12.4c-.2,6.11-.35,18.12-1.32,23.78l.93,2.04-.49-.08-2.45,1.1-.69-.5c.06-8.78-.03-17.56-.27-26.33l.18-.39,3.99-.02Z" style="fill:#ac7035;"/><path d="M802.82,14.89l.13.41c-.21,6.18-.35,17.98-1.31,23.74l.92,1.77-2.97,1.2-.66-.39c-11.32.81-18.97,8.43-28.12,14.35-26.17,17.16-64.49,17.38-91,.73-11.17-7.02-15.59-12.9-29.3-15.23l.09-.76-1.04-1.98c.99-5.65,1.11-17.24,1.33-23.43l.91.09c12.81,1.27,18.87,9.82,29.88,15.88,10.13,5.58,21.03,9.34,32.5,10.76,20.55,2.47,41.3-2.42,58.58-13.82,9.22-5.96,14.85-12.16,25.89-12.92l.18-.38,3.98-.02Z" style="fill:#f7a43c;"/><path d="M802.82,14.89l.13.41c-.21,6.18-.35,17.98-1.31,23.74l.92,1.77-2.97,1.2-.66-.39c.06-8.77-.04-17.55-.28-26.32l.18-.38,3.98-.02Z" style="fill:#ac7035;"/><path d="M194.81,14.9l.12.4c-.2,6.13-.35,18.03-1.31,23.73l.94,1.78-3.11,1.23-.55-.43c-15.6,1.17-26.7,17.22-45.46,22.79-25.17,7.47-49.75,6.34-72.89-7.24-12.7-7.45-15.12-13.15-30.05-15.68l.08-.77-1.04-1.98c1.4-7.67.36-15.74,1.6-23.44l.94.1c12.16,1.41,18.18,9.41,28.62,15.3,10.01,5.64,21.03,9.63,32.41,11.2,20.79,2.84,41.91-1.97,59.42-13.54,9.58-6.25,14.51-12.09,26.1-13.04l.19-.39,3.99-.02Z" style="fill:#f7a43c;"/><path d="M194.81,14.9l.12.4c-.2,6.13-.35,18.03-1.31,23.73l.94,1.78-3.11,1.23-.55-.43c.08-8.77,0-17.55-.27-26.31l.19-.39,3.99-.02Z" style="fill:#ac7035;"/><path d="M494.63,14.88h4.4s.14.42.14.42c-1.04,7.14-.79,18.33-.57,25.69l-1.29-.05-1.85.6c-10.22,1.01-16.54,5.75-24.65,11.73-26.06,19.22-64.4,20.85-92.39,4.98-13.45-7.63-16.15-13.9-32.4-16.94-.43-1.39.91-22.53,1.05-26.01l.95.1c6.75.76,12.21,3.42,17.52,7.69,29.77,23.94,72.08,26.3,103.82,4.71,8.44-5.74,14.66-11.64,25.15-12.51l.12-.41Z" style="fill:#f7a43c;"/><path d="M494.63,14.88h4.4s.14.42.14.42c-1.04,7.14-.79,18.33-.57,25.69l-1.29-.05c-3.05-4.34-1.93-18.73-2.8-25.65l.12-.41Z" style="fill:#ac7035;"/><path d="M346.89,14.92l.18.38c-.14,3.48-1.48,24.62-1.05,26.01l-2.92.33c-10.44.6-18.17,7.32-26.55,13.18-24.97,17.47-62.57,18.72-89.09,4.03-13.56-7.51-16.82-14.31-32.86-17.47l-.04-.57-.94-1.78c.96-5.7,1.1-17.61,1.31-23.73l.87.08c12.21,1.17,18.6,9.55,29.11,15.43,10.22,5.71,21.56,9.81,33.18,11.23,20.44,2.5,41.1-2.32,58.33-13.61,9.61-6.25,14.71-12.29,26.34-13.13l.13-.41,4,.02Z" style="fill:#f7a43c;"/><path d="M346.89,14.92l.18.38c-.14,3.48-1.48,24.62-1.05,26.01l-2.92.33-.34-26.34.13-.41,4,.02Z" style="fill:#ac7035;"/><path d="M1254.7,14.9l4.14-.03.05.44c-.23,6.49-.31,17.42-1.33,23.44l1.02,1.97-3.29.97c-12.6.67-20.67,9.81-31.57,16.19-25.24,14.77-59.91,14.77-85.25.48-14.17-7.99-15.46-13.12-32.11-17.32l-.85-2.07c1.22-6.95.58-15.94,1.67-23.66l.89.1c11.24,1.26,17.18,8.19,26.78,14.13,18.79,11.65,41.3,15.78,62.84,11.48,9.07-1.79,17.81-5.01,25.87-9.54,11.4-6.54,17.9-15.01,30.97-16.17l.17-.39Z" style="fill:#f7a43c;"/><path d="M1254.7,14.9l4.14-.03.05.44c-.23,6.49-.31,17.42-1.33,23.44l1.02,1.97-3.29.97c-.68-7.53-.32-18.08-.76-26.39l.17-.39Z" style="fill:#ac7035;"/><path d="M954.89,14.92l.18.38c-.15,3.68-1.51,24.44-1.05,26.02l-2.92.33c-10.87.61-18.69,7.84-27.5,13.81-24.88,16.86-62.01,17.89-88.16,3.38-13.55-7.52-16.85-14.27-32.82-17.47l-.05-.56-.92-1.77c.96-5.77,1.1-17.56,1.31-23.74l.94.09c11.87,1.24,18.38,9.16,28.76,15.26,10.13,5.83,21.28,9.67,32.86,11.3,20.73,2.7,41.73-2.15,59.16-13.68,9.52-6.21,14.56-12.13,26.11-12.96l.1-.42,4.02.04Z" style="fill:#f7a43c;"/><path d="M954.89,14.92l.18.38c-.15,3.68-1.51,24.44-1.05,26.02l-2.92.33c-.06-8.78-.17-17.56-.33-26.34l.1-.42,4.02.04Z" style="fill:#ac7035;"/><path d="M1107.05,14.89l.13.41c-1.09,7.72-.45,16.71-1.67,23.66l.85,2.07-3.15.59c-9.47.53-16.97,6.18-24.39,11.66-25.7,18.98-63.67,20.77-91.49,5.48-13.83-7.6-16.7-14.36-33.3-17.45-.46-1.58.9-22.34,1.05-26.02l.96.1c11.24,1.25,17.09,8.08,26.65,14.02,19.1,11.86,41.98,16.04,63.87,11.43,8.71-1.83,17.1-4.97,24.87-9.31,11.31-6.44,18.19-15.16,31.09-16.24l.12-.41h4.42Z" style="fill:#f7a43c;"/><path d="M1107.05,14.89l.13.41c-1.09,7.72-.45,16.71-1.67,23.66l.85,2.07-3.15.59c-.32-8.53.38-17.92-.7-26.33l.12-.41h4.42Z" style="fill:#ac7035;"/><path d="M646.7,14.9l4.16-.03.04.44c-.22,6.19-.34,17.78-1.33,23.43l1.04,1.98-3.3.97c-12.17.63-19.27,8.69-29.5,14.93-18.16,11.08-38.89,14.48-59.71,11.25-10.49-1.64-20.57-5.3-29.67-10.77-12.26-7.47-15.26-13.1-29.95-15.6l.14-.5c-.22-7.36-.47-18.56.57-25.69l.81.08c12.34,1.32,18.47,9.52,29,15.5,10.25,5.83,21.69,9.78,33.39,11.2,20.32,2.39,40.84-2.42,57.98-13.6,8.97-5.79,15.46-12.46,26.17-13.18l.17-.4Z" style="fill:#f7a43c;"/><path d="M646.7,14.9l4.16-.03.04.44c-.22,6.19-.34,17.78-1.33,23.43l1.04,1.98-3.3.97c-.68-7.83-.25-17.82-.77-26.39l.17-.4Z" style="fill:#ac7035;"/><path d="M1410.95,15.3l.94.1c12.32,1.3,18.18,9.29,28.78,15.26,10.32,5.82,21.68,9.95,33.46,11.39,20.44,2.49,41.1-2.33,58.32-13.62,9.58-6.23,14.72-12.3,26.32-13.11.08,4.44-.43,17.79,1.44,20.55l-.77,1.9,1.63,3.28-1.25.74-.85-.18c-12.04.86-20.43,9.83-30.72,15.96-25.11,14.98-59.81,15.2-85.26,1.02-14.07-7.84-15.77-13.26-32.43-17.46l-.93-2.04c.97-5.66,1.12-17.68,1.32-23.78Z" style="fill:#f7a43c;"/><path d="M.59.56l36.62.05c1.82,2.33,1.18,10.58,1.47,14.29l4.34-.03.12.42c-1.24,7.7-.2,15.77-1.6,23.44l1.04,1.98-3.3.98c-16.87.94-24.64,15.61-39.14,19.63-.2-8.87-.2-17.7.01-26.57C.36,23.55.57,11.79.59.56Z" style="fill:#f7a43c;"/><path d="M.59.56l36.62.05c1.82,2.33,1.19,10.58,1.47,14.29l-.17.39C20.63,17.15,14.01,32.17.15,35.42.35,24.23.57,11.79.59.56Z" style="fill:#e72829;"/><path d="M43.03,14.87l.12.42c-1.24,7.7-.2,15.77-1.6,23.44l1.04,1.98-3.3.98c-.63-8.19-.2-17.56-.77-26.39l.17-.39,4.34-.03Z" style="fill:#ac7035;"/><path d="M1.29,87.04c12.94.12,28.3-28.16,50.25-17.31,10.27,5.08,16.79,11.52,27.73,17.28-19.5,8.1-38.23,10.97-58.96,7.08-6.34-1.19-13.39-3.94-19.02-7.05v.33s0-.33,0-.33Z" style="fill:#982322;"/><path d="M1522.29,86.96c16.67-8.41,28.34-23.87,46.73-18.16,10.7,3.32,22.61,14.74,33.13,18.23-28.37,11.35-51.66,10.64-79.86-.07Z" style="fill:#982322;"/><path d="M458.69,86.76c15.41-7.69,29.27-24.33,46.83-17.96,9.9,3.59,17.1,12.45,29.51,17.93-25.6,11.95-50.74,10.54-76.34.02Z" style="fill:#982322;"/><path d="M1218.65,86.67c17.63-8.43,28.3-24.69,46.59-17.63,9.48,3.66,18.86,12,29.75,17.75-24.74,11.5-51.63,10.8-76.34-.12Z" style="fill:#982322;"/><path d="M1066.68,86.76c15.61-7.81,29.12-24.29,46.84-17.94,10.06,3.6,17.18,12.58,29.5,17.91-25.47,11.99-50.86,10.49-76.34.04Z" style="fill:#982322;"/><path d="M306.78,86.69c16.01-8.01,28.54-24.06,46.68-17.78,10.75,3.72,17.25,12.72,29.55,17.8-22.7,11.99-53.33,10.34-76.23-.02Z" style="fill:#982322;"/><path d="M1370.73,86.66c16.51-8.19,28.43-24.18,46.96-17.54,10.92,3.91,17.27,12.21,29.26,17.6-22.94,11.71-53.14,10.64-76.22-.06Z" style="fill:#982322;"/><path d="M914.96,86.62c16.07-8,27.95-23.91,46.41-17.72,11.03,3.7,17.46,12.9,29.53,17.77-21.28,11.31-54.58,10.96-75.94-.05Z" style="fill:#982322;"/><path d="M762.86,86.6c16.53-8.07,28.01-24.28,46.44-17.63,10.24,3.69,18.16,12.69,29.55,17.71-21.72,11.48-54.16,10.82-75.98-.08Z" style="fill:#982322;"/><path d="M610.79,86.63c16.13-7.76,28.59-24.64,46.9-17.49,8.5,3.32,18.86,12.2,29.15,17.59-23.33,11.74-52.62,10.54-76.05-.1Z" style="fill:#982322;"/><path d="M154.74,86.64c16.19-7.94,28.61-24.35,46.35-17.7,9.74,3.65,18.6,12.25,29.81,17.77l-.53.74c-5.02,1.13-11.4,4.06-17.67,5.33-21.08,4.27-38.56,2.71-57.96-6.14Z" style="fill:#982322;"/><path d="M1561.07,41.05l1.15.62-.08,11.51c.15,4.11.41,5.58-1.01,9.47l-1.01-.07c-2.01-3.91-1.24-16.11-1.15-20.96l.85.18,1.25-.74Z" style="fill:#d5332b;"/><path d="M1561.07,41.05l1.15.62-.08,11.51c-1-.19-1.15-.38-2.09-.84-1.06-3.13-.45-7.12-.23-10.55l1.25-.74Z" style="fill:#c52f29;"/><path d="M39.29,41.68l3.3-.98-.08.77c.14,4.15.82,17.66-2.19,20.68-1.36-1.73-1.09-4.96-.9-7.13l-.12-13.34Z" style="fill:#d5332b;"/><path d="M39.29,41.68l3.3-.98-.08.77c-1.4,4.95.12,8.88-1.35,12.88l-1.75.67-.12-13.34Z" style="fill:#c52f29;"/><path d="M647.3,41.69l3.3-.97-.09.76c.13,3.98.83,17.82-2.22,20.57-1.5-1.57-1.04-4.93-.88-7.02l-.12-13.34Z" style="fill:#d5332b;"/><path d="M647.3,41.69l3.3-.97-.09.76c-1.48,5.11.27,9.61-1.59,13.12l-1.51.43-.12-13.34Z" style="fill:#c52f29;"/><path d="M1255.29,41.68l3.29-.97-.06.76c.15,4.79.92,17.18-2.31,20.66-1.36-1.57-.97-4.64-.75-6.65l-.17-13.81Z" style="fill:#d5332b;"/><path d="M1255.29,41.68l3.29-.97-.06.76c-1.79,6.56,1.15,11.16-3.06,14.02l-.17-13.81Z" style="fill:#c52f29;"/><path d="M1407.62,42.14l2.45-1.1-.13,14.05c.2,3.27.49,4.53-1.03,7.54l-.79-.23c-1.68-5.29-1.24-14.92-1.19-20.77l.69.5Z" style="fill:#d5332b;"/><path d="M1407.62,42.14l2.45-1.1-.13,14.05-1.75-.79c-.97-3.5-.63-8.4-.57-12.17Z" style="fill:#c52f29;"/><path d="M346.02,41.31c.62,6.96-.14,13.67-.38,20.64l-1.16.11c-1.89-4.28-1.4-15.23-1.38-20.42l2.92-.33Z" style="fill:#c52f29;"/><path d="M954.03,41.32c.52,7.42,0,11.74-.73,19.17l-.65.59.06.48c-1.82-4.31-1.64-15.01-1.61-19.91l2.92-.33Z" style="fill:#c52f29;"/><path d="M1103.21,41.62l3.15-.59-.06,6.92c-.2,2.26-.09,5.16-1.49,6.75l-1.53.33-.07-13.4Z" style="fill:#c52f29;"/><path d="M498.6,40.99l-.14.5c-.06,3.46-.25,7.73-.13,11.12l-3.21.56.33-11.63,1.85-.6,1.29.05Z" style="fill:#c52f29;"/><path d="M191.46,42.05l3.11-1.23.04.57c-.79,4.45-.65,9.17-.67,13.71l-1.57-.52c-1.16-1.93-.89-5.07-.92-7.46v-5.06Z" style="fill:#c52f29;"/><path d="M495.13,53.17l3.21-.56c.11,3.34.62,6.14-.98,8.93l-1.09.24c-1.76-2.55-1.22-5.34-1.14-8.6Z" style="fill:#d5332b;"/><path d="M799.59,42.01l2.97-1.2.05.56c-.82,4.18-.65,9.37-.68,13.72l-1.77-.79c-.95-3.1-.61-8.8-.58-12.29Z" style="fill:#c52f29;"/><path d="M798.93,41.62l.66.39c-.03,3.48-.37,9.19.58,12.29l1.77.79c.33,3.54.3,3.99-.8,7.37l-.87.03c-1.9-3.76-1.31-15.87-1.35-20.87Z" style="fill:#d5332b;"/><path d="M1106.3,47.95c.33,5.85.79,8.41-1.42,13.95l-.77.29c-1.32-2.71-.97-4.14-.83-7.16l1.53-.33c1.4-1.58,1.29-4.49,1.49-6.75Z" style="fill:#d5332b;"/><path d="M191.44,47.11c.04,2.39-.24,5.53.92,7.46l1.57.52c.32,2.75.52,4.53-.92,6.47l.35.43-.77-.36c-2.23-5.81-1.77-8.42-1.15-14.52Z" style="fill:#d5332b;"/><path d="M1566.02.64l34.96-.06c.01,11.42.85,23.46,1.06,34.83.26,8.64.27,17.28.03,25.91-16.79-5.39-21.6-18-39.85-19.67l-1.15-.62-1.63-3.28.77-1.9c-1.87-2.77-1.36-16.12-1.44-20.55l.11-.42c-1.33-4.52.52-11.45-1.99-14.28l9.13.04Z" style="fill:#f7a43c;"/><path d="M1566.02.64l36.22-.64c.01,11.42-.41,24.05-.2,35.42-14.24-7.42-25.09-18.62-38.95-20.12l-.17-.39-4.04-.02c-1.33-4.52.52-11.45-1.99-14.28l9.13.04Z" style="fill:#e72829;"/><path d="M1556.89.6l9.13.04-2.02.73c-1.28,3.48-.58,9.11-1.08,13.54l-4.04-.02c-1.33-4.52.52-11.45-1.99-14.28Z" style="fill:#982322;"/><path d="M1562.92,14.91l.17.39c-.36,6.43-.59,12.87-.73,19.31l-2.15,1.25c-1.87-2.77-1.36-16.12-1.44-20.55l.11-.42,4.04.02Z" style="fill:#ac7035;"/><path d="M1562.36,34.61l-.14,7.05-1.15-.62-1.63-3.28.77-1.9,2.15-1.25Z" style="fill:#a06b3d;"/></svg>