<svg width="20" height="22" viewBox="0 0 20 22" fill="none" xmlns="http://www.w3.org/2000/svg">
    <path d="M13.333 11.9168L17.6855 15.1087C17.7483 15.1546 17.8211 15.1809 17.8964 15.1849C17.9717 15.1889 18.0466 15.1703 18.113 15.1312C18.1795 15.092 18.235 15.0338 18.2737 14.9627C18.3125 14.8916 18.333 14.8102 18.333 14.7273V7.21433C18.333 7.13368 18.3137 7.05446 18.277 6.98466C18.2403 6.91485 18.1875 6.85694 18.1239 6.81677C18.0603 6.7766 17.9882 6.75559 17.9149 6.75586C17.8416 6.75614 17.7697 6.77768 17.7063 6.81833L13.333 9.62516" stroke="#FFFFFF" stroke-width="1.66667" stroke-linecap="round" stroke-linejoin="round"/>
    <path d="M11.667 5.5H3.33366C2.41318 5.5 1.66699 6.32081 1.66699 7.33333V14.6667C1.66699 15.6792 2.41318 16.5 3.33366 16.5H11.667C12.5875 16.5 13.3337 15.6792 13.3337 14.6667V7.33333C13.3337 6.32081 12.5875 5.5 11.667 5.5Z" stroke="#FFFFFF" stroke-width="1.66667" stroke-linecap="round" stroke-linejoin="round"/>
</svg>
